# xmcd
#
# Track frame offsets: 
#        150
#        12965
#        28085
#        41918
#        57382
#        70265
#        86062
#        99523
#        112137
#        128617
#        141731
#        154556
#        168232
#        179636
#        193876
#        208127
#        220146
#        231791
#        244142
#        257123
#        270232
#        284049
#        296085
#        309016
#        321562
#
# Disc length: 4469 seconds
#
# Revision: 0
# Processed by: cddbd v1.5.2PL0 Copyright (c) Steve Scherf et al.
# Submitted via: ExactAudioCopyFreeDBPlugin 1.0
#
DISCID=8a117319
DTITLE=Various Artist - Lonesome Highway - Lonesome Road Blues CD1
DYEAR=2015
DGENRE=Blues
TTITLE0=Blind Lemon Jefferson - Booger Rooger
TTITLE1=Tommy Johnson - Big Road Blues
TTITLE2=Ramblin' Thomas - Hard To Rule Woman Blues
TTITLE3=Ernest V. Stoneman and His Dixie Mountaineers - The Unlucky Road
TTITLE3=To Washington
TTITLE4=Blind Lemon Jefferson - D B Blues
TTITLE5=Cleo Gibson - I've Got Ford Movement in My Hips
TTITLE6=Charley Patton - Down The Dirt Road Blues
TTITLE7=Grayson and Whitter - Going Down The Lee Highway
TTITLE8=St. Louis Jimmy - Patrol Wagon Blues
TTITLE9=Yank Rachell - Gravel Road Woman
TTITLE10=Cedar Creek Sheik - Ford V-8
TTITLE11=Robert Johnson - Terraplane Blues
TTITLE12=Robert Johnson - Cross Road Blues
TTITLE13=Sleepy John Estes - Poor Man's Friend (T-Model)
TTITLE14=Sleepy John Estes - Brownsville Blues
TTITLE15=W. Lee O'Daniels and His Hillbilly Boys - Lonesome Road Blues
TTITLE16=Jazz Gillum - Good Old 51 Highway
TTITLE17=Roy Acuff - The Automobile Of Life
TTITLE18=Morris Brown Quartet - De Blind Man Stood On The Road  And Cr
TTITLE18=ied
TTITLE19=Cliff Bruner and His Boys - Truck Driver's Blues
TTITLE20=Woody Guthrie - Blowin' Down This Road
TTITLE21=Jazz Gillum - Key To The Highway
TTITLE22=Tommy McClennan - New Highway No. 51
TTITLE23=Memphis Minnie - Me And My Chauffeur Blues
TTITLE24=Tommy McClennan - Travelin' Highway Men
EXTD=
EXTT0=
EXTT1=
EXTT2=
EXTT3=
EXTT4=
EXTT5=
EXTT6=
EXTT7=
EXTT8=
EXTT9=
EXTT10=
EXTT11=
EXTT12=
EXTT13=
EXTT14=
EXTT15=
EXTT16=
EXTT17=
EXTT18=
EXTT19=
EXTT20=
EXTT21=
EXTT22=
EXTT23=
EXTT24=
PLAYORDER=
